HIERARCHY
ROOT Hips
{
	OFFSET -0.001795 -0.223333 0.028219
	CHANNELS 6 Xposition Yposition Zposition Zrotation Yrotation Xrotation 
	JOINT LeftUpLeg
	{
		OFFSET 0.069520 -0.091406 -0.006815
		CHANNELS 3 Zrotation Yrotation Xrotation
		JOINT LeftLeg
		{
			OFFSET 0.034277 -0.375199 -0.004496
			CHANNELS 3 Zrotation Yrotation Xrotation
			JOINT LeftFoot
			{
				OFFSET -0.013596 -0.397961 -0.043693
				CHANNELS 3 Zrotation Yrotation Xrotation
				JOINT LeftToe
				{
					OFFSET 0.026358 -0.055791 0.119288
					CHANNELS 3 Zrotation Yrotation Xrotation
					End Site
					{
						OFFSET 0.000000 0.000000 0.000000
					}
				}
			}
		}
	}
	JOINT RightUpLeg
	{
		OFFSET -0.067670 -0.090522 -0.004320
		CHANNELS 3 Zrotation Yrotation Xrotation
		JOINT RightLeg
		{
			OFFSET -0.038290 -0.382569 -0.008850
			CHANNELS 3 Zrotation Yrotation Xrotation
			JOINT RightFoot
			{
				OFFSET 0.015774 -0.398415 -0.042312
				CHANNELS 3 Zrotation Yrotation Xrotation
				JOINT RightToe
				{
					OFFSET -0.025372 -0.048144 0.123348
					CHANNELS 3 Zrotation Yrotation Xrotation
					End Site
					{
						OFFSET 0.000000 0.000000 0.000000
					}
				}
			}
		}
	}
	JOINT Spine
	{
		OFFSET -0.002533 0.108963 -0.026696
		CHANNELS 3 Zrotation Yrotation Xrotation
		JOINT Spine1
		{
			OFFSET 0.005487 0.135180 0.001092
			CHANNELS 3 Zrotation Yrotation Xrotation
			JOINT Spine2
			{
				OFFSET 0.001457 0.052922 0.025425
				CHANNELS 3 Zrotation Yrotation Xrotation
				JOINT Neck
				{
					OFFSET -0.002778 0.213870 -0.042857
					CHANNELS 3 Zrotation Yrotation Xrotation
					JOINT Head
					{
						OFFSET 0.005152 0.064970 0.051349
						CHANNELS 3 Zrotation Yrotation Xrotation
						End Site
						{
							OFFSET 0.000000 0.000000 0.000000
						}
					}
				}
				JOINT LeftShoulder
				{
					OFFSET 0.078845 0.121749 -0.034090
					CHANNELS 3 Zrotation Yrotation Xrotation
					JOINT LeftArm
					{
						OFFSET 0.090977 0.030469 -0.008868
						CHANNELS 3 Zrotation Yrotation Xrotation
						JOINT LeftForeArm
						{
							OFFSET 0.259612 -0.012772 -0.027456
							CHANNELS 3 Zrotation Yrotation Xrotation
							JOINT LeftHand
							{
								OFFSET 0.249234 0.008986 -0.001171
								CHANNELS 3 Zrotation Yrotation Xrotation
								End Site
								{
									OFFSET 0.000000 0.000000 0.000000
								}
							}
						}
					}
				}
				JOINT RightShoulder
				{
					OFFSET -0.081759 0.118833 -0.038615
					CHANNELS 3 Zrotation Yrotation Xrotation
					JOINT RightArm
					{
						OFFSET -0.096012 0.032551 -0.009143
						CHANNELS 3 Zrotation Yrotation Xrotation
						JOINT RightForeArm
						{
							OFFSET -0.253742 -0.013329 -0.021401
							CHANNELS 3 Zrotation Yrotation Xrotation
							JOINT RightHand
							{
								OFFSET -0.255298 0.007772 -0.005559
								CHANNELS 3 Zrotation Yrotation Xrotation
								End Site
								{
									OFFSET 0.000000 0.000000 0.000000
								}
							}
						}
					}
				}
			}
		}
	}
}
MOTION
Frames: 13
Frame Time: 0.050000
0.000000 0.992954 0.000000 -4.403981 2.213443 0.179413 -0.235982 1.088866 12.408905 -0.476890 -0.122339 5.376350 5.663632 13.375249 9.060351 0.000000 0.000000 0.000000 -4.820084 0.760635 -11.740089 1.607760 0.220403 20.101766 -6.051828 -16.103594 13.481756 0.000000 0.000000 0.000000 4.157265 0.264147 -3.980016 -4.517737 1.683711 -26.028993 -2.780108 0.387335 18.283402 13.923571 -6.481431 -22.389771 0.000000 0.000000 0.000000 41.864769 -16.891393 1.730848 28.081407 -34.692450 -8.242856 18.654549 14.501980 1.761945 0.000000 0.000000 0.000000 -33.899314 7.309451 1.127792 -28.511321 37.502857 -9.064453 -7.455351 -16.119558 0.710540 0.000000 0.000000 0.000000 
0.000013 1.000909 -0.016059 -4.790676 2.188895 1.126960 0.206383 0.764397 9.126660 -1.881090 0.045999 7.455949 6.300444 12.710168 -0.943267 0.000000 0.000000 0.000000 -5.418266 0.830908 -13.909687 0.341295 0.665310 22.717902 -5.589948 -15.151428 11.730064 0.000000 0.000000 0.000000 3.240164 0.121471 -2.360198 -3.752717 1.499348 -26.481035 -2.339629 0.528643 16.332319 15.874424 -7.457319 -22.692365 0.000000 0.000000 0.000000 42.151692 -15.820144 1.940145 30.015895 -35.240733 -8.962167 18.740692 12.298918 1.500041 0.000000 0.000000 0.000000 -34.845221 6.324264 1.172163 -33.790250 35.314361 -9.540744 -0.149777 -10.438905 -0.306572 0.000000 0.000000 0.000000 
-0.000072 1.006854 -0.032174 -4.896863 0.942482 -0.407582 0.826508 0.838102 10.551141 -1.368015 -0.007326 6.626710 6.014429 11.934249 -2.336241 0.000000 0.000000 0.000000 -5.913717 0.848432 -15.161781 -0.927318 1.235839 24.603899 -4.301947 -13.062172 12.986887 0.000000 0.000000 0.000000 4.858996 -0.036354 0.008115 -4.376658 1.597847 -27.939625 -3.009659 2.161228 19.951052 16.203353 -7.452012 -24.128913 0.000000 0.000000 0.000000 46.325845 -15.274347 1.317185 28.738531 -32.292903 -7.601455 19.629471 11.196809 1.385499 0.000000 0.000000 0.000000 -37.877617 5.828300 0.415312 -33.366413 32.676124 -7.956301 0.241397 -8.222354 -0.276384 0.000000 0.000000 0.000000 
-0.000547 1.014691 -0.046911 -5.177530 2.074427 -0.471787 0.944558 0.551331 7.276333 -1.380702 -0.146916 11.341519 5.964337 11.013804 -5.224763 0.000000 0.000000 0.000000 -7.204373 0.713398 -16.770039 -0.061328 0.888069 25.417164 -4.940913 -14.309143 15.321400 0.000000 0.000000 0.000000 4.816845 -0.147076 1.311227 -5.401764 1.786929 -28.823351 -2.270927 2.337521 21.237598 17.881846 -7.949696 -26.201301 0.000000 0.000000 0.000000 49.075391 -17.857883 0.722972 31.322949 -27.980225 -6.524095 16.237725 12.314203 1.159057 0.000000 0.000000 0.000000 -38.098666 7.097352 -0.059593 -36.811680 29.248594 -6.828350 4.103697 -8.225644 -0.644373 0.000000 0.000000 0.000000 
-0.001876 1.022128 -0.058736 -4.834604 2.084561 -1.128236 1.259255 0.308354 4.306257 -2.043967 -0.087579 14.474164 5.390784 9.766745 -5.081046 0.000000 0.000000 0.000000 -8.467217 0.557505 -18.203455 0.385110 0.788183 27.331482 -6.526675 -16.876681 12.697051 0.000000 0.000000 0.000000 4.303889 -0.286165 3.294582 -5.773149 1.865197 -28.910086 -2.096474 4.048081 21.539380 17.794959 -7.640980 -26.548960 0.000000 0.000000 0.000000 51.912531 -16.984823 0.928315 33.929084 -28.422753 -7.632431 14.404628 14.259609 1.091559 0.000000 0.000000 0.000000 -38.693316 7.066535 -0.682135 -38.303243 27.926774 -5.922972 5.913197 -8.500792 -0.840095 0.000000 0.000000 0.000000 
-0.003110 1.031407 -0.066932 -5.491530 2.142484 -1.942719 2.135437 0.124814 2.233118 -2.979467 0.082929 16.848402 5.752167 10.266694 -6.150146 0.000000 0.000000 0.000000 -8.587475 0.526094 -18.520288 1.071660 0.532600 27.463555 -7.736166 -18.984309 10.904573 0.000000 0.000000 0.000000 4.312773 -0.402826 4.846267 -5.549558 1.824556 -28.984437 -1.294740 4.315074 21.775906 17.618392 -7.670826 -26.053220 0.000000 0.000000 0.000000 53.205318 -16.600304 0.844924 33.933421 -28.447295 -7.704024 14.134483 15.944961 1.174853 0.000000 0.000000 0.000000 -40.107672 8.366971 -0.941506 -38.988881 26.910371 -5.419078 6.086232 -9.372014 -0.932650 0.000000 0.000000 0.000000 
-0.003611 1.040933 -0.071584 -5.588697 1.617555 -2.093902 2.245257 -0.000826 0.368301 -2.945148 0.064227 18.624128 5.786649 10.436278 -6.085175 0.000000 0.000000 0.000000 -9.057969 0.484528 -18.980701 1.065051 0.566159 26.663606 -7.642864 -18.860169 11.270105 0.000000 0.000000 0.000000 3.964567 -0.463796 5.850076 -5.879480 1.877903 -29.212082 -0.315273 4.471331 21.575634 16.986720 -7.492763 -25.430998 0.000000 0.000000 0.000000 54.010341 -15.827518 0.809249 34.782567 -28.573152 -7.865933 13.921584 17.014889 1.232201 0.000000 0.000000 0.000000 -41.020607 9.301903 -0.960429 -40.173867 26.375046 -5.367682 6.183846 -9.554196 -0.961238 0.000000 0.000000 0.000000 
-0.002955 1.053527 -0.073813 -6.275739 1.505052 -2.518914 3.156317 -0.060085 -0.436308 -3.601874 0.233282 19.617450 5.701798 10.166163 -6.348994 0.000000 0.000000 0.000000 -9.205629 0.456162 -18.820445 1.886652 0.279759 26.795637 -7.372702 -18.369763 11.369131 0.000000 0.000000 0.000000 3.683740 -0.524631 6.878604 -5.333676 1.775639 -29.218847 0.378431 4.201527 21.102462 15.938603 -7.255289 -24.011448 0.000000 0.000000 0.000000 53.793115 -15.612341 0.803029 36.235457 -28.791356 -8.171576 12.777564 18.171361 1.156619 0.000000 0.000000 0.000000 -41.371804 9.483639 -0.863941 -40.770198 26.873010 -5.765824 4.490463 -10.594592 -0.857403 0.000000 0.000000 0.000000 
-0.001212 1.066940 -0.074954 -6.866157 1.282632 -2.743811 3.883207 -0.094752 -1.037141 -3.760328 0.281916 20.098469 6.018048 11.025596 -5.950077 0.000000 0.000000 0.000000 -9.570041 0.411385 -19.287031 2.652143 0.022886 27.031040 -7.641180 -18.882393 13.168507 0.000000 0.000000 0.000000 3.365511 -0.586163 7.976709 -4.621687 1.632053 -29.340183 0.972484 3.738909 20.959968 14.680894 -6.773000 -23.204001 0.000000 0.000000 0.000000 52.755289 -15.536844 0.724060 37.652838 -27.975525 -7.879509 12.454232 18.334543 1.131658 0.000000 0.000000 0.000000 -41.457810 9.830099 -0.698517 -41.752072 26.914156 -6.112718 4.054309 -11.160915 -0.850584 0.000000 0.000000 0.000000 
0.001785 1.082021 -0.075885 -7.547035 1.540159 -2.994982 4.463182 -0.160333 -2.324892 -3.741806 0.228154 22.283736 5.917763 10.377035 -7.302968 0.000000 0.000000 0.000000 -10.246812 0.288482 -20.787389 3.683870 -0.388969 29.215488 -7.462924 -18.541842 14.442863 0.000000 0.000000 0.000000 3.566460 -0.660554 8.733700 -4.873273 1.692949 -28.908397 1.642869 2.421222 20.220254 13.785939 -6.726768 -21.618744 0.000000 0.000000 0.000000 52.772410 -15.153576 0.487554 38.372812 -27.572377 -7.472846 10.255165 18.156821 0.824056 0.000000 0.000000 0.000000 -41.435604 10.652754 -0.302646 -41.006148 26.610424 -6.258174 2.099072 -11.724667 -0.647609 0.000000 0.000000 0.000000 
0.005225 1.096632 -0.076253 -7.838512 0.887331 -3.423248 4.919561 -0.173643 -2.963327 -4.379893 0.455795 24.364509 6.490803 11.525459 -8.500095 0.000000 0.000000 0.000000 -11.894081 0.020638 -22.091694 6.190387 -1.338967 31.575302 -8.904332 -20.958493 16.715779 0.000000 0.000000 0.000000 3.229831 -0.729957 10.100298 -4.269986 1.563321 -29.231492 1.911672 3.179748 20.826899 13.330881 -6.560272 -21.041604 0.000000 0.000000 0.000000 53.265261 -15.043477 0.437299 38.309523 -26.540870 -7.044658 9.462137 18.069591 0.687184 0.000000 0.000000 0.000000 -41.029290 10.106011 -0.475047 -39.820483 26.179310 -5.731988 -0.398037 -11.860784 -0.341280 0.000000 0.000000 0.000000 
0.008636 1.111105 -0.075327 -7.868812 1.359360 -3.557306 5.168113 -0.230833 -4.258688 -4.523297 0.441163 27.232514 7.103796 12.260264 -11.380115 0.000000 0.000000 0.000000 -12.921624 -0.261676 -24.525841 8.593504 -2.623002 35.989476 -9.740939 -22.288826 15.222191 0.000000 0.000000 0.000000 3.206362 -0.773620 10.663284 -4.888939 1.700012 -29.001018 2.067885 1.584401 20.439855 13.294262 -7.381574 -18.273663 0.000000 0.000000 0.000000 52.268267 -14.863283 0.163750 38.571085 -26.797158 -6.791893 9.065129 17.490209 0.636728 0.000000 0.000000 0.000000 -39.000543 10.469158 0.106276 -40.353637 25.580357 -5.968313 -2.482867 -11.797528 -0.091775 0.000000 0.000000 0.000000 
0.011615 1.124541 -0.072977 -7.987046 1.906349 -3.620927 5.190213 -0.293482 -5.545914 -5.011398 0.539511 29.789721 7.367522 11.928423 -14.824850 0.000000 0.000000 0.000000 -13.853912 -0.620770 -27.855952 11.391586 -4.458635 41.130380 -10.091182 -23.122100 10.586516 0.000000 0.000000 0.000000 3.241108 -0.838712 11.381350 -4.001555 1.526029 -28.884430 1.102425 2.313673 20.220606 14.635030 -8.821207 -15.813397 0.000000 0.000000 0.000000 50.530717 -14.995359 0.713151 40.319843 -27.362010 -7.764332 10.483678 18.549283 0.857521 0.000000 0.000000 0.000000 -36.912407 9.580487 -0.102383 -39.936534 25.219722 -5.353502 -4.476228 -11.965328 0.156207 0.000000 0.000000 0.000000 
